<svg width="117" height="114" viewBox="0 0 117 114" fill="none" xmlns="http://www.w3.org/2000/svg">
<mask id="mask0_301_113" style="mask-type:luminance" maskUnits="userSpaceOnUse" x="57" y="11" width="42" height="37">
<path d="M57.459 11.7488H98.2633V47.6044H57.459V11.7488Z" fill="white"/>
</mask>
<g mask="url(#mask0_301_113)">
<path d="M75.0941 24.2567C79.0387 29.5809 68.096 30.1007 71.0301 35.6902C73.8124 40.9992 77.8287 34.1113 80.9362 34.0873C85.1585 34.0634 92.8245 37.1692 97.2809 38.846C97.2636 39.02 97.2462 39.194 97.2332 39.3702C96.4439 47.9393 77.8655 47.3847 70.8718 47.065C56.4311 46.4017 57.086 33.7241 58.0142 20.9335C58.0142 9.71531 77.7137 11.7532 84.4233 12.1229C96.6304 12.7798 98.619 17.8582 97.9619 30.1964C93.2105 29.2373 86.4944 28.0868 84.6814 24.9375C82.4109 20.9879 82.9595 16.5249 76.7031 17.1883C72.0537 17.682 73.1076 21.5729 75.0941 24.2567Z" fill="#661F11"/>
</g>
<mask id="mask1_301_113" style="mask-type:luminance" maskUnits="userSpaceOnUse" x="14" y="11" width="42" height="37">
<path d="M14.9893 11.7488H55.7935V47.6044H14.9893V11.7488Z" fill="white"/>
</mask>
<g mask="url(#mask1_301_113)">
<path d="M54.8112 39.3702C54.1476 46.5517 41.0189 47.3238 32.659 47.1912C34.5391 46.8432 36.3391 46.3408 37.9959 45.7514C48.9798 41.8496 49.1923 34.8225 43.9508 31.5775C37.9352 27.8388 38.2843 25.3594 36.5082 23.5086C36.1396 23.128 35.7254 22.8039 35.2851 22.5255C35.4651 21.2945 35.9661 20.2462 37.4234 19.9374C40.6633 19.2392 44.2957 26.2642 46.8915 20.8552C49.3116 15.8138 42.1401 14.1434 38.7787 15.494C36.7424 16.3205 33.1773 18.9369 33.0276 21.6208C29.1068 20.716 24.0171 22.2711 20.9703 23.7739C18.6455 24.931 16.6526 26.747 15.1931 28.8828C15.23 26.312 15.3991 23.6238 15.603 20.9335C15.603 9.71531 35.3025 11.7532 42.0121 12.1229C56.8952 12.9233 56.5699 20.3006 54.8112 39.3702ZM35.6278 33.0804C35.4716 33.0673 35.3025 33.0608 35.1355 33.0564C28.9442 32.8737 23.3665 41.0644 32.0149 41.7104C39.0498 42.2345 43.8316 33.6524 35.6278 33.0804Z" fill="#229D98"/>
</g>
<mask id="mask2_301_113" style="mask-type:luminance" maskUnits="userSpaceOnUse" x="14" y="49" width="42" height="36">
<path d="M14.9893 49.2747H55.7935V84.8258H14.9893V49.2747Z" fill="white"/>
</mask>
<g mask="url(#mask2_301_113)">
<path d="M42.0056 49.738C35.3025 49.3748 15.5986 47.3303 15.5986 58.555C14.922 67.8289 14.3994 77.0461 19.6691 81.6591C19.0293 75.8999 30.3711 66.202 36.1894 68.1486C40.5483 69.6079 42.4762 79.9757 41.9883 84.4321C48.3965 83.71 54.3709 81.7678 54.8112 76.9852C56.5742 57.9156 56.8952 50.5383 42.0056 49.738ZM22.3495 71.2804C18.9643 69.1447 21.597 60.2797 25.5655 61.7391C29.2456 63.0963 26.2811 73.7577 22.3495 71.2804ZM30.8525 65.9911C26.8536 63.3616 30.215 52.8242 34.9186 54.6641C39.2905 56.378 35.4911 69.049 30.8525 65.9911ZM40.5917 68.7401C36.7728 65.8584 40.8085 55.5624 45.3799 57.7047C49.6304 59.6882 45.0308 72.0939 40.5917 68.7401ZM43.1506 77.5333C40.5071 74.5298 45.5426 66.7675 48.9321 69.2947C52.0831 71.6349 46.2214 81.0262 43.1506 77.5333Z" fill="#660E12"/>
</g>
<mask id="mask3_301_113" style="mask-type:luminance" maskUnits="userSpaceOnUse" x="57" y="49" width="41" height="36">
<path d="M57.459 49.2747H97.9857V84.8258H57.459V49.2747Z" fill="white"/>
</mask>
<g mask="url(#mask3_301_113)">
<path d="M97.7385 59.1945C97.5217 59.0248 97.2874 58.8856 97.0597 58.753C96.3007 58.3376 95.4572 58.0722 94.4921 58.0048C93.4273 57.933 92.3669 57.9635 91.3021 58.0788C89.14 55.8277 85.0869 52.3957 83.3325 51.8955C82.2548 55.3753 81.2984 58.3854 81.0512 61.8653C79.5462 62.7809 78.1171 63.7944 76.8116 64.8514C72.932 67.9681 70.7048 73.3792 73.0296 78.0879C74.6256 81.3155 78.4619 83.3534 82.2678 84.6322C77.8699 84.9585 73.5348 84.8019 70.8718 84.6801C56.4311 84.0167 57.086 71.3392 58.0142 58.5485C58.0142 47.3304 77.7137 49.3682 84.4233 49.738C93.2582 50.2143 96.7388 53.0003 97.7385 59.1945ZM82.9118 70.4779C81.5695 72.444 85.332 78.4316 86.8088 79.6017C88.6521 81.0567 96.5284 77.5464 96.4374 75.8151C96.2509 72.0395 84.2 68.5901 82.9118 70.4779Z" fill="#ED1E49"/>
</g>
<path d="M37.4537 35.8729C36.4302 36.4449 34.5869 36.1491 35.3329 34.9486C36.2242 33.5262 39.3317 34.8094 37.4537 35.8729ZM91.9635 74.0839C90.9334 74.5776 92.2042 75.7064 92.7529 75.9782C93.217 76.2066 94.4639 76.5568 94.8478 76.0196C95.6198 74.9582 92.7898 73.6794 91.9635 74.0839Z" fill="white"/>
<path d="M22.9655 93.3573V94.2164H24.1994V94.8427C23.9197 95.1885 23.4946 95.3821 22.9503 95.3821C21.9246 95.3821 21.3174 94.61 21.3174 93.59C21.3174 92.5612 21.9246 91.7913 22.9503 91.7913C23.5662 91.7913 24.0303 92.0719 24.3035 92.5221L25.2729 92.0393C24.8088 91.2367 23.9826 90.7234 22.9503 90.7234C21.3412 90.7234 20.2266 91.9762 20.2266 93.59C20.2266 95.2038 21.3412 96.4587 22.9503 96.4587C23.9826 96.4587 24.8088 95.9519 25.2729 95.1494V93.3573H22.9655Z" fill="#661F11"/>
<path d="M29.4374 90.7713V93.0767H27.1777V90.7713H26.1129V96.3934H27.1777V94.0967H29.4374V96.3934H30.5022V90.7713H29.4374Z" fill="#661F11"/>
<path d="M35.0018 96.3934H36.2119L34.1626 90.7713H33.0718L31.0225 96.3934H32.2325L32.6641 95.1233H34.5616L35.0018 96.3934ZM33.0241 94.1033L33.6183 92.3764L34.2103 94.1033H33.0241Z" fill="#661F11"/>
<path d="M39.6877 96.3934H40.8891L39.6877 94.3055C40.3838 94.0163 40.7525 93.3725 40.7525 92.6178C40.7525 91.5912 40.0564 90.7713 38.8073 90.7713H36.7319V96.3934H37.7967V94.4665H38.5752L39.6877 96.3934ZM37.7967 91.8H38.7834C39.3104 91.8 39.6465 92.1371 39.6465 92.6178C39.6465 93.1006 39.3104 93.4464 38.7834 93.4464H37.7967V91.8Z" fill="#661F11"/>
<path d="M43.5241 90.7713H41.4487V96.3934H42.5135V94.4665H43.5241C44.7732 94.4665 45.4693 93.6465 45.4693 92.6178C45.4693 91.5912 44.7732 90.7713 43.5241 90.7713ZM43.5002 93.4464H42.5135V91.8H43.5002C44.0272 91.8 44.372 92.1371 44.372 92.6178C44.372 93.1006 44.0272 93.4464 43.5002 93.4464Z" fill="#661F11"/>
<path d="M49.769 96.3934H50.9791L48.9298 90.7713H47.839L45.7897 96.3934H46.9997L47.4313 95.1233H49.3288L49.769 96.3934ZM47.7913 94.1033L48.3855 92.3764L48.9775 94.1033H47.7913Z" fill="#661F11"/>
<path d="M52.564 95.3734V90.7713H51.4993V96.3934H54.8628V95.3734H52.564Z" fill="#661F11"/>
<path d="M58.7313 90.7713V94.1598C58.7313 94.9145 58.3149 95.3821 57.6491 95.3821C56.9769 95.3821 56.5692 94.9145 56.5692 94.1598V90.7713H55.5044V94.1837C55.5044 95.5909 56.3436 96.4587 57.6491 96.4587C58.9481 96.4587 59.796 95.5909 59.796 94.1837V90.7713H58.7313Z" fill="#661F11"/>
<path d="M67.253 90.7713L66.0668 94.5774L64.8654 90.7713H63.857L62.6556 94.5774L61.4693 90.7713H60.2766L62.1112 96.3934H63.1673L64.3601 92.6656L65.555 96.3934H66.6024L68.4457 90.7713H67.253Z" fill="#661F11"/>
<path d="M72.5846 96.3934H73.7947L71.7453 90.7713H70.6545L68.6052 96.3934H69.8153L70.2469 95.1233H72.1444L72.5846 96.3934ZM70.6068 94.1033L71.201 92.3764L71.7931 94.1033H70.6068Z" fill="#661F11"/>
<path d="M74.6747 95.3821C74.3711 95.3821 74.1152 95.63 74.1152 95.9432C74.1152 96.2564 74.3711 96.5065 74.6747 96.5065C74.987 96.5065 75.2451 96.2564 75.2451 95.9432C75.2451 95.63 74.987 95.3821 74.6747 95.3821Z" fill="#661F11"/>
<path d="M78.5201 95.3821C77.5031 95.3821 76.8937 94.61 76.8937 93.59C76.8937 92.5612 77.5031 91.7913 78.5201 91.7913C79.136 91.7913 79.6001 92.0719 79.882 92.5221L80.8427 92.0393C80.3851 91.2367 79.5524 90.7234 78.5201 90.7234C76.9089 90.7234 75.8051 91.9762 75.8051 93.59C75.8051 95.2038 76.9089 96.4587 78.5201 96.4587C79.5524 96.4587 80.3851 95.9345 80.8427 95.1407L79.882 94.6579C79.6001 95.1081 79.136 95.3821 78.5201 95.3821Z" fill="#661F11"/>
<path d="M83.9643 90.7234C82.3552 90.7234 81.2427 91.9762 81.2427 93.59C81.2427 95.2038 82.3552 96.4587 83.9643 96.4587C85.5755 96.4587 86.6793 95.2038 86.6793 93.59C86.6793 91.9762 85.5755 90.7234 83.9643 90.7234ZM83.9643 95.3821C82.9407 95.3821 82.3313 94.61 82.3313 93.59C82.3313 92.5612 82.9407 91.7913 83.9643 91.7913C84.9813 91.7913 85.5907 92.5612 85.5907 93.59C85.5907 94.61 84.9813 95.3821 83.9643 95.3821Z" fill="#661F11"/>
<path d="M91.8775 90.7713L90.108 93.6139L88.3536 90.7713H87.3604V96.3934H88.4251V92.8505L89.7957 95.0689H90.4289L91.7973 92.8505V96.3934H92.8621V90.7713H91.8775Z" fill="#661F11"/>
</svg>
